<?xml version="1.0" encoding="utf-8"?>
<!-- Generator: Adobe Illustrator 22.0.0, SVG Export Plug-In . SVG Version: 6.00 Build 0)  -->
<svg version="1.1" id="Camada_1" xmlns="http://www.w3.org/2000/svg" xmlns:xlink="http://www.w3.org/1999/xlink" x="0px" y="0px"
	 viewBox="0 0 210 210" style="enable-background:new 0 0 210 210;" xml:space="preserve">
<style type="text/css">
	.st0{fill:#005994;}
	.st1{fill:#6F6F6E;}
</style>
<g>
	<path class="st0" d="M65.9,163.2C77,170.6,90.4,175,104.8,175c30.6,0,56.6-19.7,66.1-47.1H79.1L65.9,163.2z"/>
	<path class="st0" d="M34.9,105.1c0,17.5,6.4,33.4,17,45.7L94.7,35.9C60.9,40.7,34.9,69.9,34.9,105.1z"/>
	<path class="st0" d="M113.5,35.7l-27.9,74.7h88.8c0.1-1.7,0.2-3.5,0.2-5.3C174.7,69.4,148,40,113.5,35.7z"/>
</g>
<path class="st1" d="M210,105.2C210,47.4,163,0.4,105.2,0.4S0.4,47.4,0.4,105.2S47.4,210,105.2,210c15,0,29.3-3.2,42.2-8.9
	l-6.1-16.2c-11,5-23.3,7.8-36.2,7.8c-48.2,0-87.5-39.3-87.5-87.5S57,17.7,105.2,17.7s87.5,39.3,87.5,87.5c0,29-14.2,54.7-35.9,70.6
	l6.2,16.7C191.3,173.8,210,141.6,210,105.2z"/>
</svg>
