<?xml version="1.0" encoding="utf-8"?>
<!-- Generator: Adobe Illustrator 22.0.0, SVG Export Plug-In . SVG Version: 6.00 Build 0)  -->
<svg version="1.1" id="Camada_1" xmlns="http://www.w3.org/2000/svg" xmlns:xlink="http://www.w3.org/1999/xlink" x="0px" y="0px"
	 viewBox="0 0 709.5 187.1" style="enable-background:new 0 0 709.5 187.1;" xml:space="preserve">
<style type="text/css">
	.st0{fill:#FFFFFF;}
</style>
<g>
	<g>
		<g>
			<path class="st0" d="M59.4,146.2c9.9,6.6,21.8,10.5,34.7,10.5c27.3,0,50.5-17.6,59-42H71.2L59.4,146.2z"/>
			<path class="st0" d="M31.7,94.3c0,15.6,5.7,29.8,15.1,40.8L85.1,32.6C54.9,36.9,31.7,62.9,31.7,94.3z"/>
			<path class="st0" d="M101.9,32.4L77,99h79.3c0.1-1.6,0.2-3.1,0.2-4.7C156.5,62.5,132.7,36.2,101.9,32.4z"/>
		</g>
		<path class="st0" d="M188,94.5C188,42.9,146,1,94.5,1S0.9,42.9,0.9,94.5s42,93.5,93.5,93.5c13.4,0,26.2-2.8,37.7-7.9l-5.4-14.5
			c-9.8,4.5-20.8,7-32.3,7c-43.1,0-78.1-35-78.1-78.1s35-78.1,78.1-78.1s78.1,35,78.1,78.1c0,25.9-12.6,48.8-32.1,63.1l5.6,14.9
			C171.3,155.7,188,127,188,94.5z"/>
	</g>
	<g>
		<g>
			<path class="st0" d="M335.3,144h-1.7v-24.2h13.3v1.6h-11.6v10.3h10.9v1.6h-10.9L335.3,144L335.3,144z"/>
			<path class="st0" d="M357.7,125.6c0.8,0,1.6,0.1,2.5,0.2l-0.3,1.6c-0.8-0.2-1.5-0.3-2.3-0.3c-1.5,0-2.8,0.7-3.8,2
				c-1,1.3-1.5,2.9-1.5,4.9v9.9h-1.6v-18h1.4l0.2,3.2h0.1c0.7-1.3,1.5-2.3,2.4-2.8C355.5,125.9,356.5,125.6,357.7,125.6z"/>
			<path class="st0" d="M378.4,135c0,2.9-0.7,5.2-2.1,6.9s-3.4,2.5-5.9,2.5c-1.6,0-3-0.4-4.2-1.1c-1.2-0.8-2.1-1.9-2.8-3.3
				c-0.6-1.4-1-3.1-1-4.9c0-2.9,0.7-5.2,2.1-6.9c1.4-1.6,3.4-2.5,5.9-2.5s4.4,0.8,5.8,2.5C377.7,129.8,378.4,132.1,378.4,135z
				 M364.2,135c0,2.5,0.5,4.4,1.6,5.8c1.1,1.4,2.6,2.1,4.6,2.1s3.5-0.7,4.6-2.1c1.1-1.4,1.6-3.3,1.6-5.8s-0.5-4.4-1.6-5.8
				c-1.1-1.4-2.6-2.1-4.6-2.1s-3.5,0.7-4.6,2C364.7,130.5,364.2,132.5,364.2,135z"/>
			<path class="st0" d="M396.1,144v-11.7c0-1.8-0.4-3.1-1.1-4c-0.8-0.8-1.9-1.2-3.5-1.2c-2.2,0-3.7,0.5-4.7,1.6
				c-1,1.1-1.5,2.9-1.5,5.3v9.9h-1.6v-18h1.4l0.3,2.5h0.1c1.2-1.9,3.3-2.8,6.2-2.8c4.1,0,6.1,2.2,6.1,6.6V144H396.1z"/>
			<path class="st0" d="M408.5,142.9c1,0,1.9-0.1,2.7-0.3v1.3c-0.8,0.3-1.7,0.4-2.7,0.4c-1.6,0-2.8-0.4-3.5-1.3
				c-0.8-0.9-1.1-2.2-1.1-4v-11.6h-2.7v-1l2.7-0.7l0.8-4.1h0.8v4.4h5.3v1.4h-5.3v11.4c0,1.4,0.2,2.4,0.7,3.1
				C406.7,142.5,407.4,142.9,408.5,142.9z"/>
			<path class="st0" d="M438.9,144h-13.2v-24.2h13.2v1.6h-11.5v9.2h10.9v1.6h-10.9v10.4h11.5V144z"/>
			<path class="st0" d="M456.3,144v-11.7c0-1.8-0.4-3.1-1.1-4c-0.8-0.8-1.9-1.2-3.5-1.2c-2.2,0-3.7,0.5-4.7,1.6
				c-1,1.1-1.5,2.9-1.5,5.3v9.9h-1.6v-18h1.4l0.3,2.5h0.1c1.2-1.9,3.3-2.8,6.2-2.8c4.1,0,6.1,2.2,6.1,6.6V144H456.3z"/>
			<path class="st0" d="M470.6,125.6c1.3,0,2.4,0.2,3.4,0.7s1.8,1.3,2.6,2.4h0.1c-0.1-1.4-0.1-2.8-0.1-4.1v-6.5h1.6V144H477
				l-0.4-2.7h-0.1c-1.4,2.1-3.3,3.1-5.9,3.1c-2.5,0-4.4-0.8-5.7-2.3c-1.3-1.5-2-3.8-2-6.8c0-3.1,0.7-5.5,2-7.1
				C466.2,126.5,468.1,125.6,470.6,125.6z M470.6,127.1c-2,0-3.4,0.7-4.4,2.1s-1.5,3.4-1.5,6c0,5.1,2,7.7,5.9,7.7
				c2,0,3.5-0.6,4.5-1.8s1.4-3.1,1.4-5.8V135c0-2.8-0.5-4.8-1.4-6C474.2,127.7,472.6,127.1,470.6,127.1z"/>
			<path class="st0" d="M513.1,131.6c0,4.1-1.1,7.1-3.2,9.2c-2.1,2.1-5.3,3.1-9.4,3.1h-5.8v-24.2h6.5c3.9,0,6.8,1,8.8,3
				C512.1,124.8,513.1,127.8,513.1,131.6z M511.3,131.7c0-3.5-0.9-6.1-2.6-7.8c-1.8-1.7-4.3-2.6-7.8-2.6h-4.5v21.2h4
				C507.7,142.5,511.3,138.9,511.3,131.7z"/>
			<path class="st0" d="M525.8,144.3c-2.6,0-4.7-0.8-6.1-2.4c-1.5-1.6-2.2-3.9-2.2-6.8c0-2.9,0.7-5.2,2.1-6.9
				c1.4-1.7,3.3-2.6,5.7-2.6c2.1,0,3.8,0.7,5,2.2s1.8,3.5,1.8,6v1.3h-13c0,2.5,0.6,4.4,1.7,5.7c1.1,1.3,2.8,2,4.9,2
				c1,0,1.9-0.1,2.7-0.2c0.8-0.1,1.8-0.5,3-0.9v1.5c-1,0.4-2,0.7-2.8,0.9S526.9,144.3,525.8,144.3z M525.3,127.1
				c-1.7,0-3.1,0.6-4.2,1.7c-1,1.1-1.7,2.8-1.8,4.9h11.1c0-2.1-0.5-3.7-1.4-4.9C528.2,127.7,526.9,127.1,525.3,127.1z"/>
			<path class="st0" d="M548.6,139.3c0,1.6-0.6,2.9-1.8,3.7c-1.2,0.9-3,1.3-5.2,1.3c-2.4,0-4.3-0.4-5.7-1.1v-1.8
				c1.8,0.9,3.7,1.4,5.7,1.4c1.8,0,3.1-0.3,4-0.9c0.9-0.6,1.4-1.4,1.4-2.4c0-0.9-0.4-1.7-1.1-2.3c-0.7-0.6-1.9-1.2-3.6-1.8
				c-1.8-0.7-3.1-1.2-3.8-1.7s-1.3-1-1.6-1.6c-0.4-0.6-0.6-1.3-0.6-2.2c0-1.3,0.6-2.4,1.7-3.2c1.1-0.8,2.7-1.2,4.7-1.2
				c1.9,0,3.8,0.4,5.5,1.1l-0.6,1.5c-1.8-0.7-3.4-1.1-4.9-1.1s-2.6,0.2-3.5,0.7s-1.3,1.2-1.3,2c0,0.9,0.3,1.7,1,2.3s2,1.2,3.9,1.9
				c1.6,0.6,2.8,1.1,3.5,1.6s1.3,1,1.7,1.6S548.6,138.5,548.6,139.3z"/>
			<path class="st0" d="M552.9,121c0-1.1,0.3-1.6,1-1.6c0.3,0,0.6,0.1,0.8,0.4s0.3,0.7,0.3,1.2s-0.1,0.9-0.3,1.2
				c-0.2,0.3-0.5,0.4-0.8,0.4C553.3,122.6,552.9,122.1,552.9,121z M554.8,144h-1.6v-18h1.6V144z"/>
			<path class="st0" d="M574.8,126v1.1l-3.7,0.2c1,1.2,1.5,2.6,1.5,4.1c0,1.7-0.6,3.1-1.7,4.2c-1.2,1.1-2.7,1.6-4.6,1.6
				c-0.8,0-1.4,0-1.7-0.1c-0.7,0.3-1.1,0.7-1.5,1.2c-0.3,0.5-0.5,1-0.5,1.5c0,0.6,0.2,1,0.7,1.3c0.4,0.3,1.2,0.4,2.2,0.4h3.1
				c2,0,3.4,0.4,4.5,1.2c1,0.8,1.6,2,1.6,3.5c0,1.9-0.8,3.4-2.3,4.4s-3.7,1.5-6.6,1.5c-2.3,0-4-0.4-5.3-1.3
				c-1.2-0.9-1.9-2.1-1.9-3.6c0-1.2,0.4-2.3,1.2-3.1s1.8-1.4,3.1-1.7c-0.5-0.2-1-0.6-1.3-1s-0.5-0.9-0.5-1.5c0-1.2,0.8-2.3,2.3-3.2
				c-1-0.4-1.9-1.1-2.5-2s-0.9-2-0.9-3.2c0-1.8,0.6-3.2,1.7-4.3c1.1-1.1,2.7-1.6,4.6-1.6c1.2,0,2.1,0.1,2.7,0.3h5.8V126z M560.2,147
				c0,2.5,1.8,3.7,5.5,3.7c4.7,0,7.1-1.5,7.1-4.5c0-1.1-0.4-1.9-1.1-2.4s-1.9-0.7-3.6-0.7h-2.9C561.9,143.1,560.2,144.4,560.2,147z
				 M561.6,131.6c0,1.4,0.4,2.5,1.3,3.2c0.8,0.8,2,1.2,3.4,1.2c1.5,0,2.7-0.4,3.5-1.1c0.8-0.8,1.2-1.9,1.2-3.3
				c0-1.5-0.4-2.7-1.2-3.5c-0.8-0.8-2-1.2-3.5-1.2c-1.4,0-2.6,0.4-3.4,1.2C562,129,561.6,130.1,561.6,131.6z"/>
			<path class="st0" d="M591.5,144v-11.7c0-1.8-0.4-3.1-1.1-4c-0.8-0.8-1.9-1.2-3.5-1.2c-2.2,0-3.7,0.5-4.7,1.6
				c-1,1.1-1.5,2.9-1.5,5.3v9.9h-1.6v-18h1.4l0.3,2.5h0.1c1.2-1.9,3.3-2.8,6.2-2.8c4.1,0,6.1,2.2,6.1,6.6V144H591.5z"/>
			<path class="st0" d="M606.4,144.3c-2.6,0-4.7-0.8-6.1-2.4c-1.5-1.6-2.2-3.9-2.2-6.8c0-2.9,0.7-5.2,2.1-6.9
				c1.4-1.7,3.3-2.6,5.7-2.6c2.1,0,3.8,0.7,5,2.2s1.8,3.5,1.8,6v1.3h-13c0,2.5,0.6,4.4,1.7,5.7c1.1,1.3,2.8,2,4.9,2
				c1,0,1.9-0.1,2.7-0.2c0.8-0.1,1.8-0.5,3-0.9v1.5c-1,0.4-2,0.7-2.8,0.9S607.4,144.3,606.4,144.3z M605.9,127.1
				c-1.7,0-3.1,0.6-4.2,1.7c-1,1.1-1.7,2.8-1.8,4.9H611c0-2.1-0.5-3.7-1.4-4.9C608.7,127.7,607.5,127.1,605.9,127.1z"/>
			<path class="st0" d="M624.9,125.6c0.8,0,1.6,0.1,2.5,0.2l-0.3,1.6c-0.8-0.2-1.5-0.3-2.3-0.3c-1.5,0-2.8,0.7-3.8,2
				c-1,1.3-1.5,2.9-1.5,4.9v9.9h-1.6v-18h1.4l0.2,3.2h0.1c0.7-1.3,1.5-2.3,2.4-2.8C622.6,125.9,623.7,125.6,624.9,125.6z"/>
		</g>
		<g>
			<path class="st0" d="M286.2,87.5l-4.8-13.2h-18.2l-4.7,13.2h-8.2l17.8-47.9h8.5l17.8,47.9H286.2z M279.4,67.6l-4.5-13
				c-0.3-0.9-0.8-2.2-1.4-4.1c-0.6-1.9-1-3.2-1.2-4.1c-0.6,2.7-1.4,5.6-2.6,8.8l-4.3,12.4H279.4z"/>
			<path class="st0" d="M332.3,87.5h-7.7V65.4c0-2.8-0.6-4.9-1.7-6.2c-1.1-1.4-2.9-2.1-5.3-2.1c-3.2,0-5.6,1-7.1,2.9
				s-2.2,5.1-2.2,9.6v18h-7.7V51.5h6l1.1,4.7h0.4c1.1-1.7,2.6-3,4.6-4c2-0.9,4.2-1.4,6.7-1.4c8.7,0,13,4.4,13,13.2L332.3,87.5
				L332.3,87.5z"/>
			<path class="st0" d="M341.8,41.9c0-1.4,0.4-2.4,1.1-3.2c0.8-0.7,1.8-1.1,3.2-1.1c1.3,0,2.4,0.4,3.1,1.1c0.7,0.7,1.1,1.8,1.1,3.2
				c0,1.3-0.4,2.3-1.1,3.1c-0.8,0.7-1.8,1.1-3.1,1.1c-1.4,0-2.5-0.4-3.2-1.1C342.2,44.3,341.8,43.2,341.8,41.9z M349.9,87.5h-7.7
				v-36h7.7V87.5z"/>
			<path class="st0" d="M384.1,87.5h-27.4v-4.7l18.2-25.5h-17.1v-5.9h25.7v5.3l-17.8,24.8h18.4L384.1,87.5L384.1,87.5z"/>
			<path class="st0" d="M390.5,41.9c0-1.4,0.4-2.4,1.1-3.2c0.8-0.7,1.8-1.1,3.2-1.1c1.3,0,2.4,0.4,3.1,1.1c0.7,0.7,1.1,1.8,1.1,3.2
				c0,1.3-0.4,2.3-1.1,3.1c-0.8,0.7-1.8,1.1-3.1,1.1c-1.4,0-2.5-0.4-3.2-1.1C390.9,44.3,390.5,43.2,390.5,41.9z M398.6,87.5h-7.7
				v-36h7.7V87.5z"/>
			<path class="st0" d="M441,69.4c0,5.9-1.5,10.5-4.5,13.8s-7.2,5-12.6,5c-3.4,0-6.3-0.8-8.9-2.3s-4.6-3.7-6-6.6
				c-1.4-2.8-2.1-6.2-2.1-9.9c0-5.8,1.5-10.4,4.5-13.7s7.2-4.9,12.7-4.9c5.2,0,9.3,1.7,12.4,5S441,63.8,441,69.4z M414.7,69.4
				c0,8.3,3.1,12.5,9.2,12.5s9.1-4.2,9.1-12.5c0-8.2-3.1-12.4-9.2-12.4c-3.2,0-5.5,1.1-7,3.2C415.4,62.4,414.7,65.5,414.7,69.4z"/>
			<path class="st0" d="M511.6,63.6c0,5.8-1.1,10.7-3.3,14.6c-2.2,4-5.4,6.7-9.6,8.3l11.4,12.3h-10.5l-9-10.7h-1.3
				c-7.2,0-12.7-2.1-16.6-6.4s-5.8-10.3-5.8-18.2s1.9-13.9,5.8-18.1s9.4-6.3,16.6-6.3c7.1,0,12.6,2.1,16.4,6.4
				C509.7,49.8,511.6,55.9,511.6,63.6z M475.2,63.6c0,5.9,1.2,10.3,3.6,13.4c2.4,3,5.9,4.5,10.5,4.5s8.1-1.5,10.5-4.5
				s3.5-7.5,3.5-13.4c0-5.8-1.2-10.3-3.5-13.3s-5.8-4.5-10.4-4.5c-4.7,0-8.2,1.5-10.6,4.5S475.2,57.8,475.2,63.6z"/>
			<path class="st0" d="M546.3,87.5l-1.1-4.7h-0.4c-1.1,1.7-2.6,3-4.5,3.9c-2,1-4.2,1.4-6.7,1.4c-4.4,0-7.6-1.1-9.8-3.3
				c-2.2-2.2-3.2-5.5-3.2-9.9V51.5h7.7v22.2c0,2.8,0.6,4.8,1.7,6.2c1.1,1.4,2.9,2.1,5.3,2.1c3.2,0,5.6-1,7.1-2.9s2.3-5.1,2.3-9.7
				v-18h7.7v36.1C552.4,87.5,546.3,87.5,546.3,87.5z"/>
			<path class="st0" d="M578.5,88.2c-5.6,0-10-1.6-13.2-4.9s-4.7-7.8-4.7-13.5c0-5.9,1.5-10.5,4.4-13.9s7-5.1,12.1-5.1
				c4.8,0,8.5,1.4,11.3,4.3c2.8,2.9,4.1,6.9,4.1,11.9v4.1h-24c0.1,3.5,1.1,6.2,2.8,8.1c1.8,1.9,4.3,2.8,7.5,2.8c2.1,0,4.1-0.2,6-0.6
				c1.8-0.4,3.8-1.1,5.9-2v6.2c-1.9,0.9-3.8,1.5-5.7,1.9C583.2,88,581,88.2,578.5,88.2z M577.1,56.6c-2.4,0-4.4,0.8-5.9,2.3
				s-2.3,3.8-2.6,6.7H585c0-3-0.8-5.2-2.2-6.8C581.5,57.4,579.6,56.6,577.1,56.6z"/>
			<path class="st0" d="M600.5,41.9c0-1.4,0.4-2.4,1.1-3.2c0.7-0.7,1.8-1.1,3.2-1.1c1.3,0,2.4,0.4,3.1,1.1c0.8,0.7,1.1,1.8,1.1,3.2
				c0,1.3-0.4,2.3-1.1,3.1c-0.7,0.7-1.8,1.1-3.1,1.1c-1.4,0-2.5-0.4-3.2-1.1C600.9,44.3,600.5,43.2,600.5,41.9z M608.6,87.5h-7.7
				v-36h7.7V87.5z"/>
			<path class="st0" d="M637.1,50.8c1.5,0,2.8,0.1,3.8,0.3l-0.8,7.1c-1.1-0.3-2.2-0.4-3.4-0.4c-3.1,0-5.5,1-7.4,3s-2.9,4.6-2.9,7.8
				v18.8h-7.7V51.5h6l1,6.4h0.4c1.2-2.2,2.8-3.9,4.7-5.1C632.8,51.5,634.9,50.8,637.1,50.8z"/>
			<path class="st0" d="M679,69.4c0,5.9-1.5,10.5-4.5,13.8s-7.2,5-12.6,5c-3.4,0-6.3-0.8-8.9-2.3c-2.6-1.5-4.6-3.7-6-6.6
				c-1.4-2.8-2.1-6.2-2.1-9.9c0-5.8,1.5-10.4,4.5-13.7s7.2-4.9,12.7-4.9c5.2,0,9.3,1.7,12.4,5C677.4,59.2,679,63.8,679,69.4z
				 M652.7,69.4c0,8.3,3.1,12.5,9.2,12.5c6.1,0,9.1-4.2,9.1-12.5c0-8.2-3.1-12.4-9.2-12.4c-3.2,0-5.5,1.1-7,3.2
				C653.4,62.4,652.7,65.5,652.7,69.4z"/>
			<path class="st0" d="M710.4,87.5H683v-4.7l18.2-25.5h-17.1v-5.9h25.7v5.3L692,81.5h18.4L710.4,87.5L710.4,87.5z"/>
		</g>
	</g>
</g>
</svg>
