<?xml version="1.0" encoding="utf-8"?>
<!-- Generator: Adobe Illustrator 22.0.0, SVG Export Plug-In . SVG Version: 6.00 Build 0)  -->
<svg version="1.1" id="Camada_1" xmlns="http://www.w3.org/2000/svg" xmlns:xlink="http://www.w3.org/1999/xlink" x="0px" y="0px"
	 viewBox="0 0 622 188" style="enable-background:new 0 0 622 188;" xml:space="preserve">
<style type="text/css">
	.st0{fill:#FE7028;}
	.st1{fill:#323232;}
	.st2{enable-background:new    ;}
</style>
<g>
	<path class="st0" d="M58.5,145.8c9.9,6.6,21.8,10.5,34.7,10.5c27.3,0,50.6-17.6,59-42H70.3L58.5,145.8z"/>
	<path class="st0" d="M30.8,93.9c0,15.6,5.7,29.8,15.2,40.8L84.2,32.1C54,36.4,30.8,62.4,30.8,93.9z"/>
	<path class="st0" d="M101,31.9L76.1,98.6h79.3c0.1-1.6,0.2-3.1,0.2-4.7C155.6,62,131.8,35.8,101,31.9z"/>
</g>
<path class="st1" d="M187.1,94c0-51.6-42-93.6-93.6-93.6S0,42.4,0,94s42,93.6,93.6,93.6c13.4,0,26.2-2.8,37.7-7.9l-5.4-14.5
	c-9.8,4.5-20.8,7-32.3,7c-43.1,0-78.1-35-78.1-78.1S50.5,16,93.6,16s78.1,35,78.1,78.1c0,25.9-12.6,48.8-32.1,63.1l5.6,14.9
	C170.4,155.2,187.1,126.5,187.1,94z"/>
<g class="st2">
	<path class="st1" d="M269.4,90.8l-3.9-10.7h-14.8L247,90.8h-6.7L254.8,52h6.9l14.5,38.8H269.4z M263.9,74.6l-3.6-10.5
		c-0.3-0.7-0.6-1.8-1.1-3.3c-0.5-1.5-0.8-2.6-1-3.3c-0.5,2.2-1.2,4.5-2.1,7.1l-3.5,10.1H263.9z"/>
	<path class="st1" d="M306.3,90.8h-6.2v-18c0-2.3-0.5-3.9-1.4-5.1s-2.4-1.7-4.3-1.7c-2.6,0-4.6,0.8-5.8,2.3
		c-1.2,1.6-1.8,4.2-1.8,7.8v14.6h-6.2V61.5h4.9l0.9,3.8h0.3c0.9-1.4,2.1-2.5,3.8-3.2c1.6-0.8,3.4-1.1,5.4-1.1
		c7,0,10.5,3.6,10.5,10.7V90.8z"/>
	<path class="st1" d="M314.6,53.8c0-1.1,0.3-2,0.9-2.6s1.5-0.9,2.6-0.9c1.1,0,1.9,0.3,2.6,0.9c0.6,0.6,0.9,1.5,0.9,2.6
		c0,1.1-0.3,1.9-0.9,2.5c-0.6,0.6-1.5,0.9-2.6,0.9c-1.1,0-2-0.3-2.6-0.9S314.6,54.8,314.6,53.8z M321.2,90.8H315V61.5h6.2V90.8z"/>
	<path class="st1" d="M349.6,90.8h-22.2V87l14.8-20.7h-13.9v-4.8h20.9v4.3L334.7,86h14.9V90.8z"/>
	<path class="st1" d="M355.6,53.8c0-1.1,0.3-2,0.9-2.6c0.6-0.6,1.5-0.9,2.6-0.9c1.1,0,1.9,0.3,2.6,0.9s0.9,1.5,0.9,2.6
		c0,1.1-0.3,1.9-0.9,2.5s-1.5,0.9-2.6,0.9c-1.1,0-2-0.3-2.6-0.9C355.9,55.7,355.6,54.8,355.6,53.8z M362.2,90.8H356V61.5h6.2V90.8z"
		/>
	<path class="st1" d="M397,76.1c0,4.8-1.2,8.5-3.7,11.2c-2.5,2.7-5.9,4-10.2,4c-2.7,0-5.2-0.6-7.3-1.9c-2.1-1.2-3.7-3-4.8-5.3
		c-1.1-2.3-1.7-5-1.7-8c0-4.7,1.2-8.5,3.7-11.1c2.4-2.7,5.9-4,10.3-4c4.2,0,7.6,1.4,10.1,4.1S397,71.5,397,76.1z M375.7,76.1
		c0,6.8,2.5,10.1,7.5,10.1c4.9,0,7.4-3.4,7.4-10.1c0-6.7-2.5-10-7.5-10c-2.6,0-4.5,0.9-5.7,2.6C376.3,70.4,375.7,72.9,375.7,76.1z"
		/>
	<path class="st1" d="M453.3,71.4c0,4.7-0.9,8.6-2.7,11.9c-1.8,3.2-4.4,5.5-7.8,6.8l9.3,10h-8.5l-7.3-8.7h-1
		c-5.8,0-10.3-1.7-13.5-5.2c-3.1-3.5-4.7-8.4-4.7-14.8c0-6.4,1.6-11.3,4.7-14.7c3.1-3.4,7.6-5.1,13.5-5.1c5.8,0,10.2,1.7,13.3,5.2
		S453.3,65.1,453.3,71.4z M423.8,71.4c0,4.8,1,8.4,2.9,10.8s4.8,3.7,8.5,3.7c3.8,0,6.6-1.2,8.5-3.7s2.9-6.1,2.9-10.9
		c0-4.7-0.9-8.3-2.8-10.8s-4.7-3.7-8.5-3.7c-3.8,0-6.7,1.2-8.6,3.7S423.8,66.7,423.8,71.4z"/>
	<path class="st1" d="M481.6,90.8l-0.9-3.8h-0.3c-0.9,1.4-2.1,2.4-3.7,3.2c-1.6,0.8-3.4,1.2-5.5,1.2c-3.5,0-6.2-0.9-7.9-2.6
		c-1.7-1.8-2.6-4.4-2.6-8V61.5h6.3v18c0,2.2,0.5,3.9,1.4,5c0.9,1.1,2.4,1.7,4.3,1.7c2.6,0,4.5-0.8,5.8-2.3c1.2-1.6,1.8-4.2,1.8-7.8
		V61.5h6.2v29.3H481.6z"/>
	<path class="st1" d="M508.1,91.3c-4.6,0-8.1-1.3-10.7-4c-2.6-2.7-3.9-6.3-3.9-11c0-4.8,1.2-8.5,3.6-11.3c2.4-2.7,5.7-4.1,9.8-4.1
		c3.9,0,6.9,1.2,9.2,3.5c2.2,2.3,3.4,5.6,3.4,9.7v3.4H500c0.1,2.8,0.9,5,2.3,6.5c1.4,1.5,3.5,2.3,6.1,2.3c1.7,0,3.3-0.2,4.8-0.5
		c1.5-0.3,3.1-0.9,4.8-1.6v5.1c-1.5,0.7-3.1,1.2-4.6,1.5C511.9,91.2,510.1,91.3,508.1,91.3z M507,65.7c-2,0-3.6,0.6-4.8,1.9
		c-1.2,1.3-1.9,3.1-2.1,5.5h13.3c0-2.4-0.6-4.2-1.7-5.5C510.5,66.3,508.9,65.7,507,65.7z"/>
	<path class="st1" d="M526.2,53.8c0-1.1,0.3-2,0.9-2.6c0.6-0.6,1.5-0.9,2.6-0.9c1.1,0,1.9,0.3,2.6,0.9s0.9,1.5,0.9,2.6
		c0,1.1-0.3,1.9-0.9,2.5s-1.5,0.9-2.6,0.9c-1.1,0-2-0.3-2.6-0.9C526.5,55.7,526.2,54.8,526.2,53.8z M532.8,90.8h-6.2V61.5h6.2V90.8z
		"/>
	<path class="st1" d="M556.5,61c1.3,0,2.3,0.1,3.1,0.3l-0.6,5.8c-0.9-0.2-1.8-0.3-2.8-0.3c-2.5,0-4.5,0.8-6,2.4
		c-1.5,1.6-2.3,3.7-2.3,6.3v15.3h-6.2V61.5h4.9l0.8,5.2h0.3c1-1.7,2.2-3.1,3.8-4.2C553,61.5,554.7,61,556.5,61z"/>
	<path class="st1" d="M591,76.1c0,4.8-1.2,8.5-3.7,11.2c-2.5,2.7-5.9,4-10.2,4c-2.7,0-5.2-0.6-7.3-1.9c-2.1-1.2-3.7-3-4.8-5.3
		c-1.1-2.3-1.7-5-1.7-8c0-4.7,1.2-8.5,3.7-11.1c2.4-2.7,5.9-4,10.3-4c4.2,0,7.6,1.4,10.1,4.1S591,71.5,591,76.1z M569.7,76.1
		c0,6.8,2.5,10.1,7.5,10.1c4.9,0,7.4-3.4,7.4-10.1c0-6.7-2.5-10-7.5-10c-2.6,0-4.5,0.9-5.7,2.6C570.3,70.4,569.7,72.9,569.7,76.1z"
		/>
	<path class="st1" d="M617.7,90.8h-22.2V87l14.8-20.7h-13.9v-4.8h20.9v4.3L602.8,86h14.9V90.8z"/>
</g>
<g class="st2">
	<path class="st1" d="M285.8,137.9h-1.7v-24.1h13.2v1.5h-11.5v10.2h10.9v1.6h-10.9V137.9z"/>
	<path class="st1" d="M307.7,119.6c0.8,0,1.6,0.1,2.4,0.2l-0.3,1.6c-0.7-0.2-1.5-0.3-2.3-0.3c-1.5,0-2.8,0.6-3.8,1.9
		c-1,1.3-1.5,2.9-1.5,4.9v9.9h-1.6V120h1.4l0.2,3.2h0.1c0.7-1.3,1.5-2.2,2.4-2.8C305.5,119.9,306.5,119.6,307.7,119.6z"/>
	<path class="st1" d="M328.6,128.9c0,2.9-0.7,5.2-2.1,6.8c-1.4,1.6-3.4,2.5-5.9,2.5c-1.6,0-3-0.4-4.2-1.1c-1.2-0.8-2.1-1.8-2.8-3.3
		c-0.6-1.4-1-3.1-1-4.9c0-2.9,0.7-5.2,2.1-6.8s3.4-2.4,5.8-2.4c2.5,0,4.4,0.8,5.8,2.5C327.9,123.7,328.6,126,328.6,128.9z
		 M314.5,128.9c0,2.5,0.5,4.4,1.6,5.8c1.1,1.4,2.6,2.1,4.6,2.1s3.5-0.7,4.6-2.1c1.1-1.4,1.6-3.3,1.6-5.8c0-2.5-0.5-4.4-1.6-5.7
		c-1.1-1.4-2.6-2-4.6-2s-3.5,0.7-4.6,2C315,124.5,314.5,126.4,314.5,128.9z"/>
	<path class="st1" d="M346,137.9v-11.6c0-1.8-0.4-3.1-1.1-3.9s-1.9-1.2-3.5-1.2c-2.1,0-3.7,0.5-4.7,1.6c-1,1.1-1.5,2.8-1.5,5.3v9.9
		h-1.6V120h1.4l0.3,2.5h0.1c1.2-1.9,3.2-2.8,6.2-2.8c4.1,0,6.1,2.2,6.1,6.5v11.7H346z"/>
	<path class="st1" d="M358.2,136.7c1,0,1.9-0.1,2.7-0.3v1.3c-0.8,0.3-1.7,0.4-2.7,0.4c-1.6,0-2.7-0.4-3.5-1.3
		c-0.8-0.8-1.1-2.2-1.1-4v-11.6h-2.7v-1l2.7-0.7l0.8-4.1h0.8v4.3h5.3v1.4h-5.3v11.3c0,1.4,0.2,2.4,0.7,3S357.2,136.7,358.2,136.7z"
		/>
	<path class="st1" d="M387.1,137.9h-13.2v-24.1h13.2v1.5h-11.5v9.1h10.8v1.5h-10.8v10.3h11.5V137.9z"/>
	<path class="st1" d="M404.6,137.9v-11.6c0-1.8-0.4-3.1-1.1-3.9s-1.9-1.2-3.5-1.2c-2.1,0-3.7,0.5-4.7,1.6c-1,1.1-1.5,2.8-1.5,5.3
		v9.9h-1.6V120h1.4l0.3,2.5h0.1c1.2-1.9,3.2-2.8,6.2-2.8c4.1,0,6.1,2.2,6.1,6.5v11.7H404.6z"/>
	<path class="st1" d="M418.6,119.6c1.3,0,2.4,0.2,3.4,0.7c0.9,0.5,1.8,1.3,2.5,2.4h0.1c-0.1-1.4-0.1-2.7-0.1-4.1v-6.4h1.6v25.6H425
		l-0.4-2.7h-0.1c-1.4,2-3.3,3.1-5.9,3.1c-2.5,0-4.4-0.8-5.7-2.3c-1.3-1.5-2-3.8-2-6.7c0-3.1,0.6-5.5,1.9-7.1
		C414.2,120.4,416.1,119.6,418.6,119.6z M418.6,121.1c-2,0-3.4,0.7-4.4,2.1c-1,1.4-1.5,3.4-1.5,6c0,5.1,2,7.6,5.9,7.6
		c2,0,3.5-0.6,4.4-1.8c0.9-1.2,1.4-3.1,1.4-5.8v-0.3c0-2.8-0.5-4.8-1.4-6C422.2,121.7,420.7,121.1,418.6,121.1z"/>
	<path class="st1" d="M459.6,125.6c0,4-1.1,7.1-3.2,9.2c-2.1,2.1-5.2,3.1-9.3,3.1h-5.8v-24.1h6.5c3.8,0,6.8,1,8.8,3
		C458.6,118.8,459.6,121.7,459.6,125.6z M457.7,125.7c0-3.4-0.9-6-2.6-7.8c-1.8-1.7-4.3-2.6-7.7-2.6H443v21.1h4
		C454.1,136.4,457.7,132.8,457.7,125.7z"/>
	<path class="st1" d="M471.9,138.2c-2.6,0-4.6-0.8-6.1-2.4s-2.2-3.8-2.2-6.7c0-2.9,0.7-5.1,2.1-6.9c1.4-1.7,3.3-2.6,5.7-2.6
		c2.1,0,3.8,0.7,5,2.2s1.8,3.5,1.8,6v1.3h-12.9c0,2.5,0.6,4.3,1.7,5.6s2.7,1.9,4.8,1.9c1,0,1.9-0.1,2.7-0.2s1.8-0.5,2.9-0.9v1.5
		c-1,0.4-1.9,0.7-2.8,0.9C473.9,138.1,473,138.2,471.9,138.2z M471.5,121.1c-1.7,0-3.1,0.6-4.2,1.7c-1,1.1-1.7,2.8-1.8,4.9h11.1
		c0-2.1-0.5-3.7-1.4-4.9C474.3,121.6,473,121.1,471.5,121.1z"/>
	<path class="st1" d="M494.3,133.2c0,1.6-0.6,2.8-1.8,3.7c-1.2,0.9-2.9,1.3-5.2,1.3c-2.4,0-4.3-0.4-5.7-1.1v-1.8
		c1.8,0.9,3.7,1.4,5.7,1.4c1.8,0,3.1-0.3,4-0.9c0.9-0.6,1.4-1.4,1.4-2.3c0-0.9-0.4-1.7-1.1-2.3c-0.7-0.6-1.9-1.2-3.6-1.8
		c-1.8-0.6-3-1.2-3.8-1.7c-0.7-0.5-1.3-1-1.6-1.6c-0.4-0.6-0.6-1.3-0.6-2.1c0-1.3,0.6-2.4,1.7-3.2c1.1-0.8,2.7-1.2,4.7-1.2
		c1.9,0,3.8,0.4,5.5,1.1l-0.6,1.5c-1.8-0.7-3.4-1.1-4.9-1.1c-1.5,0-2.6,0.2-3.5,0.7c-0.9,0.5-1.3,1.2-1.3,2c0,0.9,0.3,1.7,1,2.2
		c0.7,0.6,2,1.2,3.9,1.9c1.6,0.6,2.8,1.1,3.5,1.6c0.7,0.5,1.3,1,1.7,1.6S494.3,132.4,494.3,133.2z"/>
	<path class="st1" d="M498.7,115c0-1.1,0.3-1.6,1-1.6c0.3,0,0.6,0.1,0.8,0.4s0.3,0.7,0.3,1.2c0,0.5-0.1,0.9-0.3,1.2
		c-0.2,0.3-0.5,0.4-0.8,0.4C499,116.6,498.7,116,498.7,115z M500.6,137.9h-1.6V120h1.6V137.9z"/>
	<path class="st1" d="M520.5,120v1.1l-3.7,0.2c1,1.2,1.5,2.6,1.5,4.1c0,1.7-0.6,3.1-1.7,4.2c-1.1,1.1-2.7,1.6-4.6,1.6
		c-0.8,0-1.4,0-1.7-0.1c-0.6,0.3-1.1,0.7-1.5,1.2c-0.3,0.5-0.5,0.9-0.5,1.5c0,0.6,0.2,1,0.7,1.3s1.2,0.4,2.2,0.4h3.1
		c1.9,0,3.4,0.4,4.5,1.2s1.5,1.9,1.5,3.5c0,1.9-0.8,3.3-2.3,4.4c-1.5,1-3.7,1.5-6.5,1.5c-2.3,0-4-0.4-5.2-1.3
		c-1.2-0.9-1.9-2.1-1.9-3.6c0-1.2,0.4-2.3,1.1-3.1c0.8-0.8,1.8-1.4,3.1-1.7c-0.5-0.2-1-0.6-1.3-1s-0.5-0.9-0.5-1.5
		c0-1.2,0.8-2.3,2.3-3.2c-1-0.4-1.9-1.1-2.4-2s-0.9-2-0.9-3.2c0-1.8,0.6-3.2,1.7-4.3c1.1-1.1,2.7-1.6,4.6-1.6c1.2,0,2.1,0.1,2.7,0.3
		H520.5z M506,140.9c0,2.5,1.8,3.7,5.5,3.7c4.7,0,7-1.5,7-4.5c0-1.1-0.4-1.9-1.1-2.3s-1.9-0.7-3.6-0.7H511
		C507.7,137,506,138.3,506,140.9z M507.4,125.5c0,1.4,0.4,2.5,1.3,3.2c0.8,0.8,2,1.1,3.4,1.1c1.5,0,2.6-0.4,3.4-1.1
		c0.8-0.8,1.2-1.9,1.2-3.3c0-1.5-0.4-2.7-1.2-3.4s-2-1.1-3.4-1.1c-1.4,0-2.6,0.4-3.4,1.2C507.8,122.9,507.4,124.1,507.4,125.5z"/>
	<path class="st1" d="M536.7,137.9v-11.6c0-1.8-0.4-3.1-1.1-3.9s-1.9-1.2-3.5-1.2c-2.1,0-3.7,0.5-4.7,1.6c-1,1.1-1.5,2.8-1.5,5.3
		v9.9h-1.6V120h1.4l0.3,2.5h0.1c1.2-1.9,3.2-2.8,6.2-2.8c4.1,0,6.1,2.2,6.1,6.5v11.7H536.7z"/>
	<path class="st1" d="M551.3,138.2c-2.6,0-4.6-0.8-6.1-2.4c-1.5-1.6-2.2-3.8-2.2-6.7c0-2.9,0.7-5.1,2.1-6.9c1.4-1.7,3.3-2.6,5.7-2.6
		c2.1,0,3.8,0.7,5,2.2c1.2,1.5,1.8,3.5,1.8,6v1.3h-12.9c0,2.5,0.6,4.3,1.7,5.6c1.1,1.3,2.7,1.9,4.8,1.9c1,0,1.9-0.1,2.7-0.2
		c0.8-0.1,1.8-0.5,2.9-0.9v1.5c-1,0.4-1.9,0.7-2.8,0.9S552.4,138.2,551.3,138.2z M550.9,121.1c-1.7,0-3.1,0.6-4.2,1.7
		c-1,1.1-1.7,2.8-1.8,4.9h11.1c0-2.1-0.5-3.7-1.4-4.9C553.7,121.6,552.4,121.1,550.9,121.1z"/>
	<path class="st1" d="M569.7,119.6c0.8,0,1.6,0.1,2.4,0.2l-0.3,1.6c-0.7-0.2-1.5-0.3-2.3-0.3c-1.5,0-2.8,0.6-3.8,1.9
		c-1,1.3-1.5,2.9-1.5,4.9v9.9h-1.6V120h1.4l0.2,3.2h0.1c0.7-1.3,1.5-2.2,2.4-2.8C567.5,119.9,568.5,119.6,569.7,119.6z"/>
</g>
</svg>
