<?xml version="1.0" encoding="utf-8"?>
<!-- Generator: Adobe Illustrator 22.0.0, SVG Export Plug-In . SVG Version: 6.00 Build 0)  -->
<svg version="1.1" id="Camada_1" xmlns="http://www.w3.org/2000/svg" xmlns:xlink="http://www.w3.org/1999/xlink" x="0px" y="0px"
	 viewBox="0 0 745.2 588.2" style="enable-background:new 0 0 745.2 588.2;" xml:space="preserve">
<style type="text/css">
	.st0{fill:#343a40;}
	.st1{fill:#EC6F30;}
</style>
<g>
	<g>
		<path class="st0" d="M138.2,575.9h-2.7v-39.2H157v2.5h-18.7v16.6h17.7v2.5h-17.7V575.9z"/>
		<path class="st0" d="M174.4,546.2c1.2,0,2.6,0.1,4,0.4l-0.5,2.5c-1.2-0.3-2.5-0.5-3.8-0.5c-2.5,0-4.5,1.1-6.1,3.2
			c-1.6,2.1-2.4,4.8-2.4,8v16.1H163v-29.2h2.3l0.3,5.3h0.2c1.2-2.1,2.5-3.7,3.8-4.5C170.9,546.6,172.5,546.2,174.4,546.2z"/>
		<path class="st0" d="M208,561.3c0,4.8-1.2,8.5-3.5,11.1c-2.3,2.7-5.5,4-9.5,4c-2.6,0-4.8-0.6-6.8-1.9c-1.9-1.2-3.4-3-4.5-5.3
			c-1-2.3-1.6-5-1.6-8c0-4.8,1.2-8.5,3.5-11.1c2.3-2.7,5.5-4,9.5-4c4,0,7.1,1.3,9.4,4C206.8,552.9,208,556.6,208,561.3z
			 M184.9,561.3c0,4,0.9,7.1,2.6,9.4c1.8,2.2,4.3,3.4,7.5,3.4s5.7-1.1,7.5-3.4c1.8-2.2,2.6-5.4,2.6-9.4c0-4-0.9-7.1-2.7-9.4
			c-1.8-2.2-4.3-3.3-7.5-3.3c-3.2,0-5.7,1.1-7.4,3.3C185.8,554.1,184.9,557.2,184.9,561.3z"/>
		<path class="st0" d="M236.6,575.9V557c0-2.9-0.6-5.1-1.9-6.4c-1.2-1.3-3.1-2-5.7-2c-3.5,0-6,0.9-7.7,2.6c-1.6,1.8-2.4,4.6-2.4,8.6
			v16.1h-2.7v-29.2h2.3l0.5,4h0.2c1.9-3,5.3-4.6,10.1-4.6c6.6,0,9.9,3.5,9.9,10.6v19.1H236.6z"/>
		<path class="st0" d="M256.6,574.1c1.7,0,3.1-0.1,4.4-0.4v2.1c-1.3,0.4-2.8,0.6-4.5,0.6c-2.6,0-4.5-0.7-5.7-2.1s-1.8-3.5-1.8-6.5
			V549h-4.3v-1.6l4.3-1.2l1.3-6.6h1.4v7.1h8.6v2.3h-8.6v18.5c0,2.2,0.4,3.9,1.2,5C253.7,573.5,255,574.1,256.6,574.1z"/>
		<path class="st0" d="M305.9,575.9h-21.4v-39.2h21.4v2.5h-18.7V554h17.6v2.5h-17.6v16.8h18.7V575.9z"/>
		<path class="st0" d="M334.1,575.9V557c0-2.9-0.6-5.1-1.9-6.4c-1.2-1.3-3.1-2-5.7-2c-3.5,0-6,0.9-7.7,2.6c-1.6,1.8-2.4,4.6-2.4,8.6
			v16.1h-2.7v-29.2h2.3l0.5,4h0.2c1.9-3,5.3-4.6,10.1-4.6c6.6,0,9.9,3.5,9.9,10.6v19.1H334.1z"/>
		<path class="st0" d="M357.2,546.2c2.1,0,3.9,0.4,5.5,1.2s2.9,2.1,4.1,3.9h0.2c-0.1-2.3-0.2-4.5-0.2-6.6v-10.5h2.6v41.7h-1.7
			l-0.7-4.5h-0.2c-2.2,3.3-5.4,5-9.5,5c-4,0-7.1-1.3-9.2-3.8c-2.1-2.5-3.2-6.2-3.2-10.9c0-5,1.1-8.9,3.2-11.6
			C350.1,547.5,353.2,546.2,357.2,546.2z M357.2,548.6c-3.2,0-5.6,1.1-7.2,3.4c-1.6,2.2-2.4,5.5-2.4,9.7c0,8.3,3.2,12.4,9.6,12.4
			c3.3,0,5.7-1,7.2-2.9c1.5-1.9,2.3-5.1,2.3-9.5v-0.5c0-4.5-0.8-7.7-2.3-9.7C363.1,549.6,360.6,548.6,357.2,548.6z"/>
		<path class="st0" d="M426.2,555.9c0,6.6-1.7,11.6-5.2,14.9c-3.5,3.4-8.5,5.1-15.2,5.1h-9.4v-39.2H407c6.3,0,11,1.6,14.3,4.9
			C424.5,544.8,426.2,549.6,426.2,555.9z M423.2,556c0-5.6-1.4-9.8-4.3-12.7c-2.9-2.8-7-4.3-12.6-4.3h-7.2v34.4h6.5
			C417.3,573.5,423.2,567.6,423.2,556z"/>
		<path class="st0" d="M446.8,576.4c-4.2,0-7.5-1.3-9.9-3.9c-2.4-2.6-3.6-6.3-3.6-11c0-4.6,1.1-8.4,3.4-11.2
			c2.3-2.8,5.4-4.2,9.3-4.2c3.4,0,6.1,1.2,8.1,3.6c2,2.4,3,5.7,3,9.8v2.1h-21c0,4,1,7.1,2.8,9.2c1.8,2.1,4.5,3.2,7.9,3.2
			c1.7,0,3.1-0.1,4.4-0.3c1.3-0.2,2.9-0.7,4.8-1.5v2.4c-1.6,0.7-3.2,1.2-4.6,1.5C450,576.3,448.4,576.4,446.8,576.4z M446,548.5
			c-2.8,0-5.1,0.9-6.8,2.8c-1.7,1.9-2.7,4.5-3,8h18c0-3.4-0.7-6-2.2-7.9C450.6,549.5,448.6,548.5,446,548.5z"/>
		<path class="st0" d="M483.6,568.3c0,2.6-1,4.6-3,6c-2,1.4-4.8,2.1-8.4,2.1c-3.9,0-7-0.6-9.3-1.8v-2.9c2.9,1.5,6,2.2,9.3,2.2
			c2.9,0,5.1-0.5,6.6-1.4c1.5-1,2.2-2.2,2.2-3.8c0-1.5-0.6-2.7-1.8-3.7c-1.2-1-3.1-2-5.9-2.9c-2.9-1.1-5-2-6.1-2.7
			c-1.2-0.8-2.1-1.6-2.7-2.6c-0.6-1-0.9-2.1-0.9-3.5c0-2.2,0.9-3.9,2.7-5.2c1.8-1.3,4.4-1.9,7.7-1.9c3.1,0,6.1,0.6,9,1.8l-1,2.4
			c-2.9-1.2-5.5-1.8-8-1.8c-2.4,0-4.3,0.4-5.7,1.2c-1.4,0.8-2.1,1.9-2.1,3.3c0,1.5,0.5,2.7,1.6,3.6c1.1,0.9,3.2,1.9,6.3,3.1
			c2.6,0.9,4.5,1.8,5.7,2.6c1.2,0.8,2.1,1.6,2.7,2.6C483.3,565.8,483.6,567,483.6,568.3z"/>
		<path class="st0" d="M490.6,538.6c0-1.7,0.6-2.6,1.7-2.6c0.6,0,1,0.2,1.3,0.7c0.3,0.4,0.5,1.1,0.5,1.9c0,0.8-0.2,1.4-0.5,1.9
			c-0.3,0.5-0.7,0.7-1.3,0.7C491.2,541.2,490.6,540.4,490.6,538.6z M493.7,575.9H491v-29.2h2.7V575.9z"/>
		<path class="st0" d="M526.1,546.7v1.9l-6,0.4c1.6,2,2.4,4.2,2.4,6.6c0,2.8-0.9,5.1-2.8,6.8c-1.9,1.7-4.4,2.6-7.5,2.6
			c-1.3,0-2.3-0.1-2.8-0.2c-1.1,0.6-1.9,1.2-2.4,2c-0.6,0.8-0.8,1.5-0.8,2.4c0,0.9,0.4,1.6,1.1,2c0.7,0.4,1.9,0.6,3.6,0.6h5.1
			c3.2,0,5.6,0.6,7.3,1.9s2.5,3.2,2.5,5.7c0,3.1-1.2,5.4-3.7,7.1c-2.5,1.7-6,2.5-10.7,2.5c-3.7,0-6.5-0.7-8.5-2.1
			c-2-1.4-3-3.4-3-5.9c0-2,0.6-3.7,1.9-5c1.2-1.3,2.9-2.2,5.1-2.7c-0.9-0.4-1.6-0.9-2.1-1.6c-0.5-0.7-0.8-1.5-0.8-2.4
			c0-1.9,1.2-3.7,3.7-5.1c-1.7-0.7-3-1.8-4-3.3c-0.9-1.5-1.4-3.2-1.4-5.1c0-2.9,0.9-5.3,2.8-7c1.9-1.8,4.3-2.6,7.5-2.6
			c1.9,0,3.4,0.2,4.5,0.6H526.1z M502.5,580.8c0,4,3,6,8.9,6c7.7,0,11.5-2.4,11.5-7.3c0-1.8-0.6-3-1.8-3.8c-1.2-0.8-3.1-1.2-5.8-1.2
			h-4.8C505.2,574.5,502.5,576.6,502.5,580.8z M504.7,555.8c0,2.3,0.7,4,2.1,5.2c1.4,1.2,3.2,1.9,5.5,1.9c2.4,0,4.3-0.6,5.6-1.9
			c1.3-1.2,1.9-3,1.9-5.4c0-2.5-0.7-4.3-2-5.6c-1.3-1.2-3.2-1.9-5.6-1.9c-2.3,0-4.2,0.7-5.5,2C505.4,551.6,504.7,553.4,504.7,555.8z
			"/>
		<path class="st0" d="M553.1,575.9V557c0-2.9-0.6-5.1-1.9-6.4c-1.2-1.3-3.1-2-5.7-2c-3.5,0-6,0.9-7.7,2.6c-1.6,1.8-2.4,4.6-2.4,8.6
			v16.1h-2.7v-29.2h2.3l0.5,4h0.2c1.9-3,5.3-4.6,10.1-4.6c6.6,0,9.9,3.5,9.9,10.6v19.1H553.1z"/>
		<path class="st0" d="M577.2,576.4c-4.2,0-7.5-1.3-9.9-3.9c-2.4-2.6-3.6-6.3-3.6-11c0-4.6,1.1-8.4,3.4-11.2
			c2.3-2.8,5.4-4.2,9.3-4.2c3.4,0,6.1,1.2,8.1,3.6c2,2.4,3,5.7,3,9.8v2.1h-21c0,4,1,7.1,2.8,9.2c1.8,2.1,4.5,3.2,7.9,3.2
			c1.7,0,3.1-0.1,4.4-0.3c1.3-0.2,2.9-0.7,4.8-1.5v2.4c-1.6,0.7-3.2,1.2-4.6,1.5C580.4,576.3,578.9,576.4,577.2,576.4z M576.5,548.5
			c-2.8,0-5.1,0.9-6.8,2.8c-1.7,1.9-2.7,4.5-3,8h18c0-3.4-0.7-6-2.2-7.9C581.1,549.5,579,548.5,576.5,548.5z"/>
		<path class="st0" d="M607.2,546.2c1.2,0,2.6,0.1,4,0.4l-0.5,2.5c-1.2-0.3-2.5-0.5-3.8-0.5c-2.5,0-4.5,1.1-6.1,3.2
			c-1.6,2.1-2.4,4.8-2.4,8v16.1h-2.7v-29.2h2.3l0.3,5.3h0.2c1.2-2.1,2.5-3.7,3.8-4.5C603.6,546.6,605.2,546.2,607.2,546.2z"/>
	</g>
	<g>
		<path class="st1" d="M316.3,236.3c16.1,10.8,35.4,17,56.2,17c44.3,0,81.9-28.4,95.6-68H335.3L316.3,236.3z"/>
		<path class="st1" d="M271.3,152.2c0,25.2,9.2,48.3,24.5,66l62-166.1C308.9,59.2,271.3,101.3,271.3,152.2z"/>
		<path class="st1" d="M385.1,51.9l-40.3,108h128.4c0.2-2.5,0.3-5.1,0.3-7.6C473.5,100.6,435,58.1,385.1,51.9z"/>
	</g>
	<path class="st0" d="M524.6,152.4c0-83.5-68-151.5-151.5-151.5s-151.5,68-151.5,151.5s68,151.5,151.5,151.5
		c21.7,0,42.4-4.6,61.1-12.9l-8.8-23.5c-15.9,7.3-33.7,11.3-52.3,11.3c-69.8,0-126.5-56.8-126.5-126.5S303.3,25.9,373,25.9
		s126.5,56.8,126.5,126.5c0,41.9-20.5,79.1-51.9,102.1l9,24.2C497.5,251.6,524.6,205.1,524.6,152.4z"/>
	<g>
		<path class="st0" d="M58.7,484.5L51,463H21.5l-7.6,21.4H0.6l28.9-77.5h13.7l28.9,77.5H58.7z M47.6,452.1l-7.2-21
			c-0.5-1.4-1.3-3.6-2.2-6.7c-0.9-3-1.6-5.2-1.9-6.7c-1,4.3-2.3,9.1-4.2,14.2l-7,20.1H47.6z"/>
		<path class="st0" d="M133.4,484.5h-12.5v-35.9c0-4.5-0.9-7.9-2.7-10.1c-1.8-2.2-4.7-3.3-8.6-3.3c-5.2,0-9.1,1.5-11.5,4.6
			c-2.4,3.1-3.6,8.3-3.6,15.6v29.1H82V426h9.7l1.7,7.7h0.6c1.8-2.8,4.3-4.9,7.5-6.4c3.2-1.5,6.8-2.3,10.8-2.3c14,0,21,7.1,21,21.4
			V484.5z"/>
		<path class="st0" d="M148.7,410.6c0-2.2,0.6-3.9,1.8-5.1c1.2-1.2,2.9-1.8,5.2-1.8c2.2,0,3.9,0.6,5.1,1.8c1.2,1.2,1.8,2.9,1.8,5.1
			c0,2.1-0.6,3.8-1.8,5c-1.2,1.2-2.9,1.8-5.1,1.8c-2.3,0-4-0.6-5.2-1.8C149.3,414.4,148.7,412.7,148.7,410.6z M161.8,484.5h-12.4
			V426h12.4V484.5z"/>
		<path class="st0" d="M217.2,484.5h-44.3v-7.7l29.5-41.2h-27.7V426h41.7v8.7L187.4,475h29.7V484.5z"/>
		<path class="st0" d="M227.5,410.6c0-2.2,0.6-3.9,1.8-5.1c1.2-1.2,2.9-1.8,5.2-1.8c2.2,0,3.9,0.6,5.1,1.8c1.2,1.2,1.8,2.9,1.8,5.1
			c0,2.1-0.6,3.8-1.8,5c-1.2,1.2-2.9,1.8-5.1,1.8c-2.3,0-4-0.6-5.2-1.8C228.1,414.4,227.5,412.7,227.5,410.6z M240.7,484.5h-12.4
			V426h12.4V484.5z"/>
		<path class="st0" d="M309.3,455.1c0,9.5-2.4,17-7.3,22.3c-4.9,5.4-11.7,8-20.4,8c-5.5,0-10.3-1.2-14.5-3.7
			c-4.2-2.5-7.4-6-9.7-10.6c-2.3-4.6-3.4-10-3.4-16.1c0-9.5,2.4-16.9,7.3-22.2c4.9-5.3,11.7-8,20.5-8c8.5,0,15.1,2.7,20.1,8.2
			C306.8,438.6,309.3,445.9,309.3,455.1z M266.8,455.1c0,13.5,5,20.2,14.9,20.2c9.9,0,14.8-6.7,14.8-20.2c0-13.3-5-20-14.9-20
			c-5.2,0-9,1.7-11.3,5.2C268,443.8,266.8,448.7,266.8,455.1z"/>
		<path class="st0" d="M423.7,445.7c0,9.4-1.8,17.3-5.4,23.7c-3.6,6.4-8.8,10.9-15.6,13.5l18.5,19.9h-17l-14.6-17.3h-2.1
			c-11.7,0-20.6-3.5-26.9-10.4c-6.3-6.9-9.4-16.7-9.4-29.5c0-12.7,3.1-22.5,9.4-29.4c6.3-6.8,15.3-10.2,26.9-10.2
			c11.5,0,20.4,3.5,26.6,10.4C420.6,423.4,423.7,433.1,423.7,445.7z M364.8,445.7c0,9.5,1.9,16.7,5.8,21.6s9.5,7.4,17.1,7.4
			c7.5,0,13.2-2.4,17-7.3c3.8-4.9,5.7-12.1,5.7-21.7c0-9.5-1.9-16.7-5.7-21.5s-9.4-7.3-16.9-7.3c-7.6,0-13.3,2.4-17.1,7.3
			S364.8,436.3,364.8,445.7z"/>
		<path class="st0" d="M479.9,484.5l-1.7-7.7h-0.6c-1.7,2.7-4.2,4.8-7.4,6.4c-3.2,1.5-6.8,2.3-10.9,2.3c-7.1,0-12.4-1.8-15.8-5.3
			c-3.5-3.5-5.2-8.9-5.2-16V426h12.5v36c0,4.5,0.9,7.8,2.7,10.1c1.8,2.2,4.7,3.4,8.6,3.4c5.2,0,9-1.6,11.5-4.7
			c2.4-3.1,3.7-8.3,3.7-15.7V426h12.5v58.4H479.9z"/>
		<path class="st0" d="M532.1,485.5c-9.1,0-16.2-2.6-21.3-7.9c-5.1-5.3-7.7-12.6-7.7-21.9c0-9.5,2.4-17,7.1-22.5
			c4.8-5.5,11.3-8.2,19.6-8.2c7.7,0,13.8,2.3,18.3,7c4.5,4.7,6.7,11.1,6.7,19.3v6.7h-38.9c0.2,5.7,1.7,10,4.6,13.1
			c2.9,3,7,4.6,12.2,4.6c3.4,0,6.7-0.3,9.6-1c3-0.7,6.2-1.7,9.6-3.2v10.1c-3,1.4-6.1,2.5-9.2,3.1
			C539.7,485.2,536.1,485.5,532.1,485.5z M529.9,434.4c-3.9,0-7.1,1.2-9.5,3.7c-2.4,2.5-3.8,6.1-4.3,10.9h26.5
			c-0.1-4.8-1.2-8.5-3.5-11C536.9,435.6,533.8,434.4,529.9,434.4z"/>
		<path class="st0" d="M567.7,410.6c0-2.2,0.6-3.9,1.8-5.1c1.2-1.2,2.9-1.8,5.2-1.8c2.2,0,3.9,0.6,5.1,1.8c1.2,1.2,1.8,2.9,1.8,5.1
			c0,2.1-0.6,3.8-1.8,5c-1.2,1.2-2.9,1.8-5.1,1.8c-2.3,0-4-0.6-5.2-1.8C568.3,414.4,567.7,412.7,567.7,410.6z M580.8,484.5h-12.4
			V426h12.4V484.5z"/>
		<path class="st0" d="M627,425c2.5,0,4.6,0.2,6.2,0.5l-1.2,11.6c-1.8-0.4-3.6-0.6-5.5-0.6c-5,0-9,1.6-12.1,4.9
			c-3.1,3.2-4.6,7.4-4.6,12.6v30.5h-12.4V426h9.7l1.6,10.3h0.6c1.9-3.5,4.5-6.2,7.6-8.3C620,426,623.4,425,627,425z"/>
		<path class="st0" d="M694.8,455.1c0,9.5-2.4,17-7.3,22.3c-4.9,5.4-11.7,8-20.4,8c-5.5,0-10.3-1.2-14.5-3.7
			c-4.2-2.5-7.4-6-9.7-10.6c-2.3-4.6-3.4-10-3.4-16.1c0-9.5,2.4-16.9,7.3-22.2c4.9-5.3,11.7-8,20.5-8c8.4,0,15.1,2.7,20.1,8.2
			C692.4,438.6,694.8,445.9,694.8,455.1z M652.3,455.1c0,13.5,5,20.2,14.9,20.2c9.9,0,14.8-6.7,14.8-20.2c0-13.3-5-20-14.9-20
			c-5.2,0-9,1.7-11.3,5.2C653.5,443.8,652.3,448.7,652.3,455.1z"/>
		<path class="st0" d="M745.8,484.5h-44.3v-7.7l29.5-41.2h-27.7V426H745v8.7L716.1,475h29.7V484.5z"/>
	</g>
</g>
</svg>
