<?xml version="1.0" encoding="utf-8"?>
<!-- Generator: Adobe Illustrator 22.0.0, SVG Export Plug-In . SVG Version: 6.00 Build 0)  -->
<svg version="1.1" id="Camada_1" xmlns="http://www.w3.org/2000/svg" xmlns:xlink="http://www.w3.org/1999/xlink" x="0px" y="0px"
	 viewBox="0 0 200 59.3" style="enable-background:new 0 0 200 59.3;" xml:space="preserve">
<g>
	<path d="M82.7,18l-4.4,12h2.6l0.8-2.5h4.8l0.8,2.5h2.6l-4.4-12H82.7z M82.3,25.7l1.8-5.1l1.8,5.1H82.3z"/>
	<path d="M96.9,20.3c-0.8,0-1.4,0.2-2,0.5c-0.6,0.4-1,0.9-1.3,1.5v-1.9h-2.4V30h2.4v-5c0-0.9,0.2-1.5,0.6-1.9
		c0.4-0.5,0.9-0.6,1.7-0.6c0.7,0,1.2,0.2,1.6,0.6c0.4,0.4,0.6,1,0.6,1.8V30h2.4v-5.6c0-1.3-0.3-2.3-1-3C98.8,20.7,98,20.3,96.9,20.3
		z"/>
	<path d="M103.8,19c0.4,0,0.8-0.1,1.1-0.4c0.3-0.3,0.4-0.5,0.4-1c0-0.4-0.2-0.7-0.4-1s-0.7-0.4-1.1-0.4s-0.8,0.1-1.1,0.4
		c-0.3,0.3-0.4,0.5-0.4,1c0,0.4,0.2,0.7,0.4,1C103.1,18.9,103.4,19,103.8,19z"/>
	<rect x="102.6" y="20.5" width="2.4" height="9.5"/>
	<polygon points="113.9,28 109.3,28 113.8,22.4 113.8,20.5 106.7,20.5 106.7,22.5 111,22.5 106.6,28.1 106.6,30 113.9,30 	"/>
	<rect x="115.6" y="20.5" width="2.4" height="9.5"/>
	<path d="M116.8,16.4c-0.4,0-0.8,0.1-1.1,0.4c-0.3,0.3-0.4,0.5-0.4,1c0,0.4,0.2,0.7,0.4,1c0.3,0.3,0.7,0.4,1.1,0.4s0.8-0.1,1.1-0.4
		c0.3-0.3,0.4-0.5,0.4-1c0-0.4-0.2-0.7-0.4-1C117.6,16.5,117.2,16.4,116.8,16.4z"/>
	<path d="M127,20.9c-0.8-0.4-1.6-0.6-2.5-0.6s-1.8,0.2-2.5,0.6s-1.3,1-1.8,1.7c-0.4,0.8-0.7,1.6-0.7,2.6s0.2,1.9,0.7,2.6
		c0.4,0.8,1,1.3,1.8,1.7c0.8,0.4,1.6,0.6,2.5,0.6s1.8-0.2,2.5-0.6s1.3-1,1.8-1.7c0.4-0.8,0.6-1.6,0.6-2.6s-0.2-1.9-0.6-2.6
		C128.3,21.9,127.8,21.3,127,20.9z M126.2,27.3c-0.4,0.5-1.1,0.7-1.7,0.7c-0.7,0-1.3-0.3-1.7-0.7c-0.4-0.5-0.7-1.1-0.7-2
		s0.3-1.6,0.7-2c0.4-0.5,1.1-0.7,1.7-0.7c0.7,0,1.3,0.3,1.7,0.7c0.4,0.5,0.7,1.1,0.7,2C126.9,26.1,126.7,26.8,126.2,27.3z"/>
	<path d="M140.9,30.1c0.6,0,1.1,0,1.5-0.1l1.9,2.2h2.9l-2.9-3.1c0.8-0.5,1.4-1.3,1.9-2.1s0.7-1.9,0.7-3c0-1.2-0.3-2.3-0.8-3.2
		s-1.3-1.7-2.2-2.2c-0.9-0.5-1.9-0.8-3.1-0.8c-1.1,0-2.1,0.3-3.1,0.8c-0.9,0.5-1.6,1.3-2.2,2.2s-0.8,2-0.8,3.2s0.3,2.3,0.8,3.2
		s1.3,1.7,2.2,2.2C138.7,29.8,139.8,30.1,140.9,30.1z M137.3,23.9c0-0.8,0.1-1.5,0.4-2.1s0.7-1,1.3-1.4c0.6-0.3,1.1-0.5,1.9-0.5
		c0.7,0,1.4,0.1,1.9,0.5c0.6,0.3,0.9,0.8,1.3,1.4s0.4,1.3,0.4,2.1c0,0.8-0.1,1.5-0.4,2.1s-0.7,1-1.3,1.4c-0.6,0.3-1.1,0.5-1.9,0.5
		c-0.7,0-1.4-0.1-1.9-0.5c-0.6-0.3-0.9-0.8-1.3-1.4S137.3,24.7,137.3,23.9z"/>
	<path d="M155.5,28.1V30h2.4v-9.5h-2.4v5.1c0,0.9-0.2,1.5-0.6,1.9c-0.4,0.5-0.9,0.6-1.6,0.6c-0.6,0-1.2-0.2-1.6-0.6
		c-0.4-0.4-0.6-1-0.6-1.8v-5.2h-2.4V26c0,1.3,0.4,2.3,1,3s1.6,1.1,2.6,1.1c0.8,0,1.4-0.2,2-0.5C154.9,29.2,155.3,28.7,155.5,28.1z"
		/>
	<path d="M168.2,28.4c0.4-0.5,0.7-1.1,0.8-1.8h-2.6c-0.1,0.5-0.4,0.9-0.7,1.1c-0.4,0.3-0.9,0.4-1.4,0.4c-0.6,0-1.1-0.2-1.6-0.6
		c-0.4-0.4-0.6-1-0.7-1.9h7c0.1-0.3,0.1-0.6,0.1-0.9c0-0.9-0.2-1.6-0.6-2.4c-0.4-0.7-0.9-1.2-1.6-1.6s-1.6-0.6-2.4-0.6
		c-0.9,0-1.8,0.2-2.4,0.6s-1.3,1-1.7,1.7s-0.6,1.6-0.6,2.6s0.2,1.9,0.6,2.6c0.4,0.8,0.9,1.3,1.7,1.7c0.7,0.4,1.6,0.6,2.4,0.6
		c0.8,0,1.5-0.1,2.1-0.5C167.3,29.4,167.8,28.9,168.2,28.4z M162.8,22.8c0.4-0.4,1-0.6,1.6-0.6s1.2,0.2,1.6,0.6
		c0.4,0.4,0.6,1,0.6,1.8h-4.6C162.1,23.8,162.4,23.2,162.8,22.8z"/>
	<path d="M172.1,16.4c-0.4,0-0.8,0.1-1.1,0.4s-0.4,0.5-0.4,1c0,0.4,0.1,0.7,0.4,1s0.6,0.4,1.1,0.4c0.4,0,0.8-0.1,1.1-0.4
		s0.4-0.5,0.4-1c0-0.4-0.1-0.7-0.4-1C172.9,16.5,172.5,16.4,172.1,16.4z"/>
	<rect x="170.8" y="20.5" width="2.4" height="9.5"/>
	<path d="M177.9,22.3v-1.8h-2.4V30h2.4v-4.6c0-1.6,0.9-2.5,2.6-2.5h0.7v-2.6c-0.7,0-1.4,0.1-1.9,0.5
		C178.7,21.2,178.3,21.7,177.9,22.3z"/>
	<path d="M189.4,20.9c-0.8-0.4-1.6-0.6-2.5-0.6s-1.8,0.2-2.5,0.6s-1.3,1-1.8,1.7c-0.4,0.8-0.6,1.6-0.6,2.6s0.2,1.9,0.6,2.6
		c0.4,0.8,1,1.3,1.8,1.7c0.8,0.4,1.6,0.6,2.5,0.6s1.8-0.2,2.5-0.6s1.3-1,1.8-1.7c0.4-0.8,0.6-1.6,0.6-2.6s-0.2-1.9-0.6-2.6
		C190.8,21.9,190.2,21.3,189.4,20.9z M188.6,27.3c-0.4,0.5-1.1,0.7-1.7,0.7c-0.7,0-1.3-0.3-1.7-0.7c-0.4-0.5-0.7-1.1-0.7-2
		s0.3-1.6,0.7-2c0.4-0.5,1.1-0.7,1.7-0.7c0.7,0,1.3,0.3,1.7,0.7c0.4,0.5,0.7,1.1,0.7,2C189.4,26.1,189.1,26.8,188.6,27.3z"/>
	<polygon points="195.4,28 199.9,22.4 199.9,20.5 192.8,20.5 192.8,22.5 197.1,22.5 192.7,28.1 192.7,30 200,30 200,28 	"/>
	<path d="M48.3,36.3h-26l-3.8,10c3.1,2.1,7,3.3,11,3.3C38.2,49.6,45.6,44,48.3,36.3z"/>
	<path d="M9.8,29.8c0,5,1.8,9.5,4.8,13l12.2-32.5C17.1,11.6,9.8,19.8,9.8,29.8z"/>
	<path d="M49.3,29.8c0-10.1-7.5-18.5-17.3-19.7l-7.9,21.2h25.1C49.3,30.8,49.3,30.3,49.3,29.8z"/>
	<path d="M29.6,0.2C13.3,0.2,0,13.5,0,29.8s13.3,29.7,29.6,29.7c4.3,0,8.3-0.9,11.9-2.5l-1.7-4.6c-3.1,1.4-6.6,2.2-10.3,2.2
		C16,54.6,4.9,43.5,4.9,29.8S16,5.1,29.6,5.1s24.8,11.1,24.8,24.8c0,8.2-4,15.5-10.2,20l1.8,4.8c8-5.3,13.3-14.4,13.3-24.8
		C59.3,13.5,46,0.2,29.6,0.2z"/>
	<polygon points="108.5,43.4 106.8,37 105.7,37 103.8,43.4 102.4,37 101.3,37 103.3,44.5 104.4,44.5 106.2,38.4 107.9,44.5 
		109.1,44.5 111.1,37 109.9,37 	"/>
	<path d="M116.2,39c-0.4-0.3-0.9-0.3-1.5-0.3c-0.6,0-1.1,0.1-1.5,0.3s-0.8,0.6-1,1c-0.3,0.5-0.3,1-0.3,1.6s0.1,1.2,0.3,1.6
		c0.3,0.5,0.6,0.8,1,1c0.4,0.3,0.9,0.3,1.5,0.3c0.5,0,0.9-0.1,1.3-0.3c0.4-0.2,0.7-0.5,0.9-0.8s0.4-0.7,0.5-1.1h-1.1
		c-0.1,0.4-0.3,0.7-0.6,1c-0.3,0.3-0.7,0.3-1.2,0.3s-0.9-0.2-1.3-0.5c-0.3-0.3-0.6-0.8-0.6-1.5h4.7c0.1-0.2,0.1-0.3,0.1-0.5
		c0-0.5-0.1-1-0.3-1.3C116.9,39.5,116.6,39.2,116.2,39z M112.8,41.3c0.1-0.7,0.2-1.2,0.6-1.5c0.3-0.3,0.8-0.5,1.3-0.5
		c0.3,0,0.7,0,0.9,0.2c0.3,0.2,0.5,0.3,0.7,0.7c0.2,0.3,0.3,0.7,0.2,1.1H112.8z"/>
	<path d="M123.7,39c-0.4-0.3-0.8-0.3-1.4-0.3s-1.1,0.2-1.4,0.5c-0.4,0.3-0.7,0.7-0.8,1.2v-3.5h-0.9v7.9h0.9v-1.5
		c0.2,0.5,0.4,0.8,0.8,1.2c0.4,0.3,0.9,0.5,1.4,0.5c0.5,0,1-0.1,1.4-0.3s0.8-0.6,0.9-1c0.3-0.5,0.3-1,0.3-1.6s-0.1-1.2-0.3-1.6
		C124.4,39.5,124.1,39.2,123.7,39z M123.4,43.2c-0.3,0.4-0.8,0.5-1.4,0.5c-0.4,0-0.7-0.1-1.1-0.3c-0.3-0.2-0.6-0.5-0.7-0.8
		S120,42,120,41.6s0.1-0.8,0.3-1.2c0.2-0.3,0.4-0.6,0.7-0.8c0.3-0.2,0.7-0.3,1.1-0.3c0.6,0,1.1,0.2,1.4,0.5c0.3,0.4,0.6,0.9,0.6,1.6
		C124,42.3,123.8,42.8,123.4,43.2z"/>
	<path d="M134.1,37.5c-0.6-0.3-1.3-0.5-2.1-0.5h-2.4v7.5h2.4c0.9,0,1.6-0.2,2.1-0.5c0.6-0.3,1.1-0.8,1.4-1.3s0.4-1.3,0.4-2
		s-0.1-1.5-0.4-2C135.1,38.2,134.6,37.8,134.1,37.5z M134.1,42.9c-0.5,0.5-1.3,0.8-2.3,0.8h-1.4v-5.8h1.4c1,0,1.8,0.3,2.3,0.8
		s0.8,1.2,0.8,2.2S134.6,42.4,134.1,42.9z"/>
	<path d="M141.6,39c-0.4-0.3-0.9-0.3-1.5-0.3c-0.6,0-1.1,0.1-1.5,0.3s-0.8,0.6-1,1c-0.3,0.5-0.4,1-0.4,1.6s0.1,1.2,0.4,1.6
		c0.3,0.5,0.6,0.8,1,1c0.4,0.3,0.9,0.3,1.5,0.3c0.5,0,0.9-0.1,1.4-0.3c0.4-0.2,0.7-0.5,0.9-0.8s0.4-0.7,0.5-1.1h-1.1
		c-0.1,0.4-0.3,0.7-0.6,1c-0.3,0.3-0.7,0.3-1.2,0.3s-0.9-0.2-1.3-0.5s-0.6-0.8-0.6-1.5h4.7c0.1-0.2,0.1-0.3,0.1-0.5
		c0-0.5-0.1-1-0.4-1.3C142.3,39.5,142,39.2,141.6,39z M138.1,41.3c0.1-0.7,0.2-1.2,0.6-1.5c0.4-0.3,0.8-0.5,1.4-0.5
		c0.4,0,0.6,0,0.9,0.2s0.5,0.3,0.6,0.7c0.1,0.3,0.3,0.7,0.2,1.1H138.1z"/>
	<path d="M147.6,41.6c-0.3-0.1-0.6-0.2-1.1-0.3c-0.4-0.1-0.6-0.2-0.8-0.2s-0.4-0.2-0.5-0.3s-0.2-0.3-0.2-0.5c0-0.3,0.1-0.5,0.3-0.7
		c0.2-0.2,0.4-0.3,0.8-0.3c0.4,0,0.8,0.1,1,0.3c0.3,0.2,0.4,0.5,0.4,0.8h0.9c-0.1-0.6-0.4-1-0.8-1.4c-0.4-0.3-0.9-0.5-1.6-0.5
		c-0.6,0-1.1,0.2-1.5,0.5c-0.4,0.3-0.6,0.7-0.6,1.2c0,0.3,0.1,0.7,0.3,0.9c0.2,0.2,0.4,0.4,0.6,0.5s0.6,0.2,1.1,0.3
		c0.4,0.1,0.6,0.2,0.8,0.2s0.4,0.2,0.5,0.3c0.1,0.2,0.2,0.3,0.2,0.5c0,0.3-0.1,0.5-0.3,0.7s-0.4,0.3-0.8,0.3c-0.4,0-0.8-0.1-1.1-0.3
		c-0.3-0.2-0.4-0.5-0.4-0.8H144c0.1,0.6,0.4,1,0.8,1.4c0.4,0.3,1,0.5,1.7,0.5c0.6,0,1.1-0.2,1.4-0.5s0.6-0.7,0.6-1.2
		c0-0.4-0.1-0.7-0.3-0.9C148.1,41.9,147.9,41.7,147.6,41.6z"/>
	<path d="M150.6,36.3c-0.2,0-0.4,0-0.5,0.2c-0.1,0.1-0.2,0.3-0.2,0.5s0.1,0.3,0.2,0.5c0.1,0.1,0.3,0.2,0.5,0.2s0.4,0,0.5-0.2
		c0.1-0.1,0.2-0.3,0.2-0.5s-0.1-0.3-0.2-0.5C151,36.4,150.9,36.3,150.6,36.3z"/>
	<rect x="150.1" y="38.7" width="0.9" height="5.8"/>
	<path d="M157.6,40.2c-0.1-0.5-0.4-0.8-0.9-1.2c-0.4-0.3-0.9-0.5-1.4-0.5c-0.5,0-1,0.1-1.4,0.3s-0.8,0.6-0.9,1
		c-0.3,0.5-0.4,1-0.4,1.6s0.1,1.2,0.4,1.6c0.3,0.5,0.6,0.8,0.9,1s0.9,0.3,1.4,0.3c0.6,0,1.1-0.2,1.4-0.5s0.6-0.7,0.9-1.2v1.6
		c0,0.6-0.1,1.1-0.5,1.4c-0.4,0.3-0.8,0.5-1.3,0.5s-0.9-0.1-1.3-0.3c-0.3-0.2-0.6-0.5-0.6-1H153c0.1,0.7,0.4,1.2,0.9,1.5
		c0.5,0.4,1.1,0.5,1.9,0.5c0.6,0,1.1-0.1,1.4-0.3s0.8-0.5,0.9-1c0.3-0.4,0.4-0.9,0.4-1.5v-5.8h-0.9L157.6,40.2L157.6,40.2z
		 M157.4,42.7c-0.1,0.3-0.4,0.6-0.7,0.8c-0.3,0.2-0.6,0.3-1.1,0.3c-0.6,0-1.1-0.2-1.4-0.5c-0.4-0.4-0.6-0.9-0.6-1.6
		c0-0.7,0.2-1.2,0.6-1.6c0.4-0.4,0.9-0.5,1.4-0.5c0.4,0,0.8,0.1,1.1,0.3s0.6,0.5,0.7,0.8c0.1,0.3,0.3,0.7,0.3,1.2
		C157.6,42,157.6,42.4,157.4,42.7z"/>
	<path d="M163.5,38.6c-0.5,0-0.9,0.2-1.3,0.4c-0.4,0.3-0.6,0.6-0.8,1.1v-1.4h-0.9v5.8h0.9v-3.1c0-0.7,0.1-1.2,0.5-1.5
		c0.3-0.3,0.8-0.5,1.3-0.5c0.5,0,0.9,0.2,1.2,0.5s0.4,0.8,0.4,1.3v3.4h0.9v-3.4c0-0.8-0.2-1.5-0.6-1.9
		C164.8,38.8,164.2,38.6,163.5,38.6z"/>
	<path d="M171.6,39c-0.4-0.3-0.9-0.3-1.5-0.3c-0.6,0-1.1,0.1-1.5,0.3s-0.8,0.6-1,1c-0.3,0.5-0.4,1-0.4,1.6s0.1,1.2,0.4,1.6
		c0.3,0.5,0.6,0.8,1,1c0.4,0.3,0.9,0.3,1.5,0.3c0.5,0,0.9-0.1,1.4-0.3c0.4-0.2,0.7-0.5,0.9-0.8s0.4-0.7,0.5-1.1h-1.1
		c-0.1,0.4-0.3,0.7-0.6,1c-0.3,0.3-0.7,0.3-1.2,0.3s-0.9-0.2-1.3-0.5s-0.6-0.8-0.6-1.5h4.7c0.1-0.2,0.1-0.3,0.1-0.5
		c0-0.5-0.1-1-0.4-1.3C172.4,39.5,172.1,39.2,171.6,39z M168.2,41.3c0.1-0.7,0.2-1.2,0.6-1.5c0.4-0.3,0.8-0.5,1.4-0.5
		c0.4,0,0.6,0,0.9,0.2s0.5,0.3,0.6,0.7c0.1,0.3,0.3,0.7,0.2,1.1H168.2z"/>
	<path d="M175.4,39.9v-1.2h-0.9v5.8h0.9v-3.1c0-0.7,0.1-1.1,0.5-1.4c0.4-0.3,0.8-0.4,1.4-0.4h0.3v-1c-0.5,0-0.9,0.1-1.4,0.3
		C175.9,39.1,175.6,39.4,175.4,39.9z"/>
</g>
</svg>
